<?xml version="1.0" encoding="UTF-8" standalone="no"?>
<!-- Created with Inkscape (http://www.inkscape.org/) -->

<svg
   width="2359.1074"
   height="725.54053"
   viewBox="0 0 624.18049 191.96593"
   version="1.1"
   id="svg1"
   inkscape:version="1.4 (86a8ad7, 2024-10-11)"
   sodipodi:docname="描画-241.svg"
   xml:space="preserve"
   inkscape:export-filename="syntheticsense\synth2.svg"
   inkscape:export-xdpi="96"
   inkscape:export-ydpi="96"
   xmlns:inkscape="http://www.inkscape.org/namespaces/inkscape"
   xmlns:sodipodi="http://sodipodi.sourceforge.net/DTD/sodipodi-0.dtd"
   xmlns="http://www.w3.org/2000/svg"
   xmlns:svg="http://www.w3.org/2000/svg"><sodipodi:namedview
     id="namedview1"
     pagecolor="#ffffff"
     bordercolor="#ffffff"
     borderopacity="1"
     inkscape:showpageshadow="2"
     inkscape:pageopacity="0.0"
     inkscape:pagecheckerboard="0"
     inkscape:deskcolor="#d1d1d1"
     inkscape:document-units="mm"
     inkscape:zoom="0.068740912"
     inkscape:cx="7397.3415"
     inkscape:cy="4851.5504"
     inkscape:window-width="1920"
     inkscape:window-height="1111"
     inkscape:window-x="-9"
     inkscape:window-y="-9"
     inkscape:window-maximized="1"
     inkscape:current-layer="layer1"><inkscape:page
       x="0"
       y="0"
       width="624.18048"
       height="191.96593"
       id="page2"
       margin="0"
       bleed="0" /></sodipodi:namedview><defs
     id="defs1" /><g
     inkscape:label="Layer 1"
     inkscape:groupmode="layer"
     id="layer1"
     transform="translate(-1325.1352,-93.927522)"><path
       id="path8"
       style="font-style:normal;font-variant:normal;font-weight:600;font-stretch:normal;font-size:128.508px;font-family:Inter;-inkscape-font-specification:'Inter, Semi-Bold';font-variant-ligatures:normal;font-variant-caps:normal;font-variant-numeric:normal;font-variant-east-asian:normal;text-align:start;letter-spacing:-13.4993px;writing-mode:lr-tb;direction:ltr;text-orientation:upright;text-anchor:start;fill:#9e9e9f;fill-opacity:1;stroke-width:2;stroke-linecap:round;stroke-linejoin:round;stroke-miterlimit:1;paint-order:stroke fill markers"
       d="m 1361.917,93.927559 c -6.541,0 -12.3975,1.155832 -17.5695,3.468002 -5.1719,2.28175 -9.2638,5.491819 -12.2757,9.629389 -2.9815,4.13757 -4.4721,8.95916 -4.4721,14.46577 0,6.69313 2.2208,12.06332 6.6626,16.10961 4.4723,4.01588 10.5566,7.01212 18.2537,8.98964 l 10.633,2.73833 c 3.3465,0.85185 6.2675,1.82551 8.7622,2.92075 2.5251,1.06482 4.4875,2.40334 5.887,4.01578 1.3995,1.58201 2.1141,3.59006 2.1446,6.02392 -0.03,2.67725 -0.8365,5.01954 -2.4185,7.02748 -1.582,1.97751 -3.7727,3.52935 -6.5717,4.65501 -2.7685,1.09524 -5.9931,1.64279 -9.6743,1.64279 -3.5291,0 -6.7236,-0.5325 -9.5834,-1.59731 -2.8294,-1.06482 -5.1265,-2.67738 -6.8911,-4.83744 -1.7645,-2.16005 -2.7683,-4.86772 -3.0117,-8.12301 h -16.6568 c 0.2433,6.20635 1.8559,11.46962 4.8374,15.78973 3.0119,4.32011 7.1795,7.60596 12.5036,9.85728 5.3545,2.25132 11.6677,3.37705 18.9389,3.37705 7.4841,0 13.8576,-1.15635 19.1208,-3.46852 5.2937,-2.34259 9.3399,-5.58225 12.1388,-9.71982 2.7989,-4.16799 4.1987,-8.99011 4.1987,-14.4663 0,-4.0463 -0.7609,-7.57556 -2.282,-10.58747 -1.5212,-3.0119 -3.59,-5.58256 -6.2064,-7.71219 -2.5859,-2.12963 -5.5215,-3.89426 -8.8072,-5.29373 -3.2553,-1.39947 -6.6475,-2.51015 -10.1766,-3.33158 l -8.7623,-2.19005 c -1.9166,-0.45635 -3.8178,-1.01947 -5.704,-1.68878 -1.8863,-0.66932 -3.6052,-1.49091 -5.1568,-2.46445 -1.5516,-1.00397 -2.7837,-2.22053 -3.6964,-3.65043 -0.8823,-1.42989 -1.3235,-3.11875 -1.3235,-5.06584 0.03,-2.34259 0.715,-4.42641 2.0537,-6.25181 1.3386,-1.82539 3.2703,-3.27031 5.7955,-4.33513 2.5251,-1.06481 5.5525,-1.59732 9.0816,-1.59732 5.0198,0 9.0961,1.11017 12.2297,3.33107 3.1641,2.2209 4.9593,5.32405 5.3852,9.3095 h 16.2916 c -0.091,-5.26323 -1.5669,-9.9177 -4.4267,-13.964 -2.8597,-4.07672 -6.7995,-7.256169 -11.8194,-9.537919 -4.9894,-2.31217 -10.8002,-3.468002 -17.4325,-3.468002 z m 547.8331,0 c -8.1535,0 -15.4549,1.901132 -21.9047,5.704042 -6.4497,3.802909 -11.5459,9.294549 -15.288,16.474439 -3.7421,7.14947 -5.6131,15.75932 -5.6131,25.82943 0,10.03969 1.856,18.64953 5.5676,25.82943 3.7117,7.1799 8.7923,12.67102 15.2421,16.47393 6.4497,3.80291 13.7818,5.70456 21.9961,5.70456 5.5674,0 10.6329,-0.82159 15.1964,-2.46445 4.5635,-1.67328 8.549,-3.98547 11.9564,-6.93653 3.4074,-2.98148 6.1608,-6.4194 8.26,-10.31358 2.1296,-3.89418 3.5138,-8.06183 4.1527,-12.50363 l -17.0677,-0.0915 c -0.5172,2.73809 -1.4602,5.17225 -2.8293,7.30188 -1.3386,2.12963 -2.9963,3.92436 -4.9738,5.38468 -1.9471,1.46032 -4.1529,2.571 -6.6172,3.33158 -2.4339,0.73016 -5.0502,1.09502 -7.8491,1.09502 -5.0503,0 -9.5382,-1.23213 -13.4628,-3.69641 -3.8942,-2.49471 -6.9667,-6.17605 -9.218,-11.04377 -2.2209,-4.89815 -3.3316,-10.92178 -3.3316,-18.07125 0,-7.02778 1.1107,-12.97563 3.3316,-17.84336 2.2209,-4.89815 5.2934,-8.60958 9.218,-11.13471 3.9246,-2.55555 8.4275,-3.83335 13.5082,-3.83335 2.8598,0 5.5218,0.39548 7.9861,1.18649 2.4947,0.76058 4.7156,1.90136 6.6627,3.42253 1.947,1.52115 3.5747,3.37713 4.8829,5.56761 1.3082,2.16005 2.2055,4.63936 2.6923,7.4383 h 17.0677 c -0.6997,-5.20238 -2.1903,-9.82676 -4.4721,-13.87304 -2.2513,-4.07673 -5.1266,-7.51464 -8.6253,-10.31359 -3.4987,-2.829359 -7.4841,-4.973909 -11.9564,-6.434229 -4.4722,-1.46032 -9.3094,-2.190562 -14.5117,-2.190562 z m -517.7052,1.277442 33.9979,58.595379 v 34.86505 h 16.8847 v -34.86505 l 32.5464,-56.093729 v 90.958779 h 16.9307 v -63.66071 h 0.7757 l 44.0376,63.66071 h 15.0596 V 95.205001 h -16.8393 v 63.706689 h -0.8212 l -43.9921,-63.706689 h -13.6994 -1.4516 -17.6692 l -22.8632,41.345269 h -0.9126 l -22.8632,-41.345269 z m 161.017,0 v 14.192929 h 28.8871 v 79.2675 h 16.7933 v -79.2675 h 28.8872 V 95.205001 Z m 75.3975,0 v 93.460429 h 16.9307 v -39.70248 h 43.3075 v 39.70248 h 16.9762 V 95.205001 h -16.9762 v 39.565529 h -43.3075 V 95.205001 Z m 82.1061,0 v 93.460429 h 61.1508 v -14.19241 h -44.2201 v -25.51007 h 40.7061 v -14.19242 h -40.7061 v -25.3726 h 43.8552 V 95.205001 Z m 61.5319,0 v 14.192929 h 28.8871 v 79.2675 h 16.7938 v -79.2675 h 28.8866 V 95.205001 Z m 75.398,0 v 93.460429 h 16.9302 V 95.205001 Z"
       sodipodi:nodetypes="sccsccccccccscsccccsccssccccscccssscccccscscssssccccccccsccsccscscccccsscccccccccccccccccccccccccccccccccccccccccccccccccccccccccccccccccccccccccc"
       inkscape:export-filename="syntheticsense\synthlogo_color.png"
       inkscape:export-xdpi="96"
       inkscape:export-ydpi="96" /><path
       id="path9"
       style="font-style:normal;font-variant:normal;font-weight:600;font-stretch:normal;font-size:128.508px;font-family:Inter;-inkscape-font-specification:'Inter, Semi-Bold';font-variant-ligatures:normal;font-variant-caps:normal;font-variant-numeric:normal;font-variant-east-asian:normal;text-align:start;letter-spacing:-13.4993px;writing-mode:lr-tb;direction:ltr;text-orientation:upright;text-anchor:start;fill:#8fa5c1;fill-opacity:1;stroke-width:2;stroke-linecap:round;stroke-linejoin:round;stroke-miterlimit:1;paint-order:stroke fill markers"
       d="m 1361.9168,189.74065 c -6.541,0 -12.3975,1.15635 -17.5695,3.46852 -5.1719,2.28175 -9.2638,5.4913 -12.2757,9.62887 -2.9815,4.13757 -4.4721,8.95969 -4.4721,14.4663 0,6.69313 2.2209,12.0628 6.6627,16.1091 4.4723,4.01587 10.5565,7.01263 18.2536,8.99015 l 10.633,2.73781 c 3.3465,0.85186 6.2675,1.82552 8.7622,2.92076 2.5251,1.06481 4.4875,2.40334 5.887,4.01577 1.3995,1.58201 2.1141,3.59006 2.1446,6.02392 -0.03,2.67725 -0.8365,5.02006 -2.4185,7.028 -1.582,1.97751 -3.7727,3.52883 -6.5717,4.65449 -2.7685,1.09524 -5.9931,1.6428 -9.6743,1.6428 -3.5291,0 -6.7236,-0.53251 -9.5834,-1.59732 -2.8294,-1.06482 -5.1265,-2.67686 -6.8911,-4.83691 -1.7645,-2.16006 -2.7683,-4.86773 -3.0117,-8.12302 h -16.6568 c 0.2433,6.20635 1.8559,11.46962 4.8374,15.78973 3.0119,4.32011 7.1795,7.60544 12.5036,9.85676 5.3545,2.25133 11.6677,3.37706 18.9389,3.37706 7.4841,0 13.8576,-1.15584 19.1208,-3.46801 5.2937,-2.34259 9.3399,-5.58277 12.1388,-9.72033 2.7989,-4.168 4.1987,-8.99011 4.1987,-14.4663 0,-4.0463 -0.7609,-7.57557 -2.282,-10.58747 -1.5212,-3.01191 -3.5899,-5.58256 -6.2063,-7.71219 -2.5859,-2.12963 -5.5216,-3.89426 -8.8073,-5.29374 -3.2553,-1.39947 -6.6475,-2.50963 -10.1766,-3.33106 l -8.7622,-2.19056 c -1.9166,-0.45635 -3.8179,-1.01948 -5.7041,-1.68879 -1.8863,-0.66931 -3.6052,-1.49039 -5.1568,-2.46393 -1.5516,-1.00397 -2.7837,-2.22105 -3.6964,-3.65094 -0.8823,-1.4299 -1.3234,-3.11822 -1.3234,-5.06532 0.03,-2.34259 0.7149,-4.42694 2.0536,-6.25234 1.3386,-1.82539 3.2703,-3.27032 5.7955,-4.33513 2.5251,-1.06482 5.5525,-1.59732 9.0816,-1.59732 5.0198,0 9.0962,1.11068 12.2298,3.33158 3.1641,2.2209 4.9593,5.32406 5.3852,9.30951 h 16.2915 c -0.091,-5.26323 -1.5668,-9.91823 -4.4266,-13.96452 -2.8597,-4.07673 -6.7996,-7.25566 -11.8195,-9.53741 -4.9894,-2.31217 -10.8002,-3.46852 -17.4325,-3.46852 z m 216.1987,0 c -6.541,0 -12.3975,1.15635 -17.5695,3.46852 -5.172,2.28175 -9.2638,5.4913 -12.2757,9.62887 -2.9815,4.13757 -4.4726,8.95969 -4.4726,14.4663 0,6.69313 2.2208,12.0628 6.6626,16.1091 4.4722,4.01587 10.5571,7.01263 18.2542,8.99015 l 10.633,2.73781 c 3.3466,0.85186 6.267,1.82552 8.7617,2.92076 2.5251,1.06481 4.4875,2.40334 5.887,4.01577 1.3994,1.58201 2.1146,3.59006 2.1451,6.02392 -0.03,2.67725 -0.837,5.02006 -2.419,7.028 -1.582,1.97751 -3.7723,3.52883 -6.5712,4.65449 -2.7685,1.09524 -5.9935,1.6428 -9.6748,1.6428 -3.5291,0 -6.7236,-0.53251 -9.5834,-1.59732 -2.8293,-1.06482 -5.126,-2.67686 -6.8906,-4.83691 -1.7645,-2.16006 -2.7688,-4.86773 -3.0122,-8.12302 h -16.6563 c 0.2434,6.20635 1.8554,11.46962 4.8369,15.78973 3.0119,4.32011 7.18,7.60544 12.5041,9.85676 5.3545,2.25133 11.6672,3.37706 18.9384,3.37706 7.4841,0 13.8581,-1.15584 19.1213,-3.46801 5.2937,-2.34259 9.3398,-5.58277 12.1388,-9.72033 2.7989,-4.168 4.1982,-8.99011 4.1982,-14.4663 0,-4.0463 -0.7604,-7.57557 -2.2815,-10.58747 -1.5212,-3.01191 -3.5899,-5.58256 -6.2063,-7.71219 -2.5859,-2.12963 -5.5221,-3.89426 -8.8078,-5.29374 -3.2553,-1.39947 -6.6475,-2.50963 -10.1766,-3.33106 l -8.7618,-2.19056 c -1.9166,-0.45635 -3.8183,-1.01948 -5.7045,-1.68879 -1.8863,-0.66931 -3.6052,-1.49039 -5.1568,-2.46393 -1.5516,-1.00397 -2.7837,-2.22105 -3.6964,-3.65094 -0.8823,-1.4299 -1.3235,-3.11822 -1.3235,-5.06532 0.03,-2.34259 0.7151,-4.42694 2.0537,-6.25234 1.3387,-1.82539 3.2708,-3.27032 5.796,-4.33513 2.5251,-1.06482 5.552,-1.59732 9.0811,-1.59732 5.0198,0 9.0967,1.11068 12.2303,3.33158 3.1641,2.2209 4.9587,5.32406 5.3846,9.30951 h 16.2921 c -0.091,-5.26323 -1.5668,-9.91823 -4.4266,-13.96452 -2.8597,-4.07673 -6.7997,-7.25566 -11.8195,-9.53741 -4.9894,-2.31217 -10.8002,-3.46852 -17.4325,-3.46852 z m -179.6821,1.27796 v 93.46045 h 61.1508 v -14.19294 h -44.2205 v -25.50955 h 40.7065 v -14.19242 h -40.7065 v -25.37312 h 43.8552 v -14.19242 z m 64.5821,0 v 93.46045 h 16.9303 v -63.66124 h 0.7762 l 44.0376,63.66124 h 15.0595 v -93.46045 h -16.8393 v 63.70619 h -0.8216 l -43.9922,-63.70619 z m 151.6161,0 v 93.46045 h 332.4503 v -14.19294 h -315.5195 v -25.50955 h 312.006 v -14.19242 h -312.006 v -25.37312 h 315.1547 v -14.19242 z"
       sodipodi:nodetypes="sccsccccccccscsccccsccssccccscccssscccccssccsccccccccscsccccsccssccccscccssscccccsccccccccccccccccccccccccccccccccccccccc" /></g></svg>
